<svg xmlns="http://www.w3.org/2000/svg" width="52" height="52" viewBox="0 0 52 52">
  <g id="Icon_5" data-name="Icon 5" transform="translate(-675 -2112)">
    <g id="Trazado_865" data-name="Trazado 865" transform="translate(675 2112)">
      <path id="Trazado_1" data-name="Trazado 1" d="M26,49.5A23.507,23.507,0,0,1,16.854,4.346,23.507,23.507,0,0,1,35.146,47.654,23.351,23.351,0,0,1,26,49.5Z" fill="#fff"/>
      <path id="Trazado_2" data-name="Trazado 2" d="M26,5A21,21,0,0,0,11.151,40.849a21,21,0,1,0,29.7-29.7A20.862,20.862,0,0,0,26,5m0-5A26,26,0,1,1,0,26,26,26,0,0,1,26,0Z" fill="#e6d2e6"/>
    </g>
    <path id="Unión_42" data-name="Unión 42" d="M18717.6,27V20.252h-6.6L18720,0l9,20.252h-6.631V27Z" transform="translate(-12546.793 15364.493) rotate(-45)" fill="#6a3765"/>
  </g>
</svg>
