<svg xmlns="http://www.w3.org/2000/svg" width="52" height="52" viewBox="0 0 52 52">
  <g id="Icon_4" data-name="Icon 4" transform="translate(-553 -1823)">
    <g id="Trazado_557" data-name="Trazado 557" transform="translate(553 1823)">
      <path id="Trazado_3" data-name="Trazado 3" d="M26,49.5A23.507,23.507,0,0,1,16.854,4.346,23.507,23.507,0,0,1,35.146,47.654,23.351,23.351,0,0,1,26,49.5Z" fill="#fff"/>
      <path id="Trazado_4" data-name="Trazado 4" d="M26,5A21,21,0,0,0,11.151,40.849a21,21,0,1,0,29.7-29.7A20.862,20.862,0,0,0,26,5m0-5A26,26,0,1,1,0,26,26,26,0,0,1,26,0Z" fill="#cbfcf9"/>
    </g>
    <text id="_" data-name="$" transform="translate(571 1858)" fill="#00dbd0" font-size="26" font-family="Poppins-Bold, Poppins" font-weight="700"><tspan x="0" y="0">$</tspan></text>
  </g>
</svg>
